<svg xmlns="http://www.w3.org/2000/svg" viewBox="0 0 235 266">
	<path class="hexagon" d="M110.9,241.9l-84.3-48.7c-4.1-2.4-6.6-6.8-6.7-11.5V84.3c0-4.8,2.5-9.2,6.7-11.6l84.3-48.6 c4.1-2.4,9.2-2.4,13.3,0l84.2,48.7c4.1,2.4,6.7,6.8,6.7,11.6v97.3c0,4.8-2.5,9.2-6.7,11.6l-84.2,48.6 C120.2,244.2,115.1,244.2,110.9,241.9z" />
	<path class="text" d="M111,103.7c0-0.7,0.3-1.4,0.9-1.9c0.6-0.5,1.4-0.7,2.3-0.7h6.6c0.9,0,1.7,0.2,2.3,0.7c0.6,0.5,0.9,1.2,0.9,1.9 v7.8c0,0.7-0.3,1.3-0.9,1.8c-0.6,0.5-1.4,0.7-2.3,0.7h-6.6c-0.9,0-1.7-0.2-2.3-0.7c-0.6-0.5-0.9-1.2-0.9-1.8V103.7z M50.7,101 c1,0,1.7,0.3,2.3,0.9c0.6,0.6,1,1.4,1,2.3v6.6c0,0.9-0.3,1.7-1,2.3c-0.6,0.6-1.4,0.9-2.3,0.9h-9.5c-0.9,0-1.6-0.3-2.2-0.9 c-0.6-0.6-1-1.4-1-2.3v-6.6c0-0.9,0.3-1.7,1-2.3c0.6-0.6,1.4-0.9,2.2-0.9H50.7z M92.7,101c0.9,0,1.6,0.3,2.3,0.9 c0.7,0.6,1,1.3,1,2.2v6.8c0,0.9-0.3,1.6-1,2.2s-1.4,0.9-2.3,0.9H74v48c0,0.8-0.3,1.5-1,2.1s-1.4,0.9-2.3,0.9h-7.4 c-1,0-1.7-0.3-2.4-0.9c-0.7-0.6-1-1.3-1-2.1v-57.9c0-0.9,0.3-1.6,1-2.2c0.7-0.6,1.4-0.9,2.4-0.9H92.7z M120.9,119 c0.9,0,1.7,0.4,2.2,1.1c0.6,0.7,0.9,1.6,0.9,2.6v38.7c0,1-0.3,1.8-0.9,2.5c-0.6,0.7-1.4,1.1-2.2,1.1h-6.8c-0.8,0-1.6-0.4-2.2-1.1 c-0.6-0.7-0.9-1.6-0.9-2.5v-38.7c0-1,0.3-1.9,0.9-2.6c0.6-0.7,1.4-1.1,2.2-1.1H120.9z M194.1,101c0.8,0,1.4,0.3,2,0.9 s0.9,1.3,0.9,2.1v58c0,0.8-0.3,1.5-0.9,2.1c-0.6,0.6-1.2,0.9-2,0.9h-6.2c-0.9,0-1.5-0.3-2-0.9c-0.6-0.6-0.9-1.3-0.9-2.1v-39.1 l-15.4,20.6c-0.6,0.7-1.3,1.1-2.3,1.1l0,0c-0.5,0-0.9-0.1-1.3-0.3c-0.5-0.2-0.8-0.5-1-0.9L138,105.8c-0.3-0.4-0.5-0.9-0.6-1.5 c-0.1-0.6,0.1-1.1,0.3-1.6c0.3-0.5,0.7-0.9,1.1-1.2c0.4-0.3,1-0.5,1.4-0.5h7.3c1,0,1.7,0.4,2.3,1.2l17.5,24.3l17.1-24.3 c0.6-0.8,1.4-1.2,2.4-1.2C186.8,101,194.1,101,194.1,101z M148.1,143c0.8,0,1.4,0.3,2,0.9c0.6,0.6,0.9,1.3,0.9,2.1v16 c0,0.8-0.3,1.5-0.9,2.1c-0.6,0.6-1.2,0.9-2,0.9h-6.2c-0.8,0-1.4-0.3-2-0.9c-0.6-0.6-0.9-1.3-0.9-2.1v-16c0-0.9,0.3-1.6,0.9-2.1 c0.6-0.6,1.2-0.9,2-0.9C141.8,143,148.1,143,148.1,143z" />
	<style type="text/css">
		.hexagon { fill: #1d1e2a; }
		.text { fill: #f6f6f6; }
	</style>
</svg>