<svg xmlns="http://www.w3.org/2000/svg" xmlns:xlink="http://www.w3.org/1999/xlink" viewBox="0 0 235 266">
	<path class="hexagon" d="M30,70.9l77.5-44.7c6.2-3.6,13.8-3.6,20,0L205,70.9c6.2,3.6,10,10.2,10,17.3l0,89.5c0,7.1-3.8,13.7-10,17.3 l-77.5,44.7c-6.2,3.6-13.8,3.6-20,0L30,195.1c-6.2-3.6-10-10.2-10-17.3l0-89.5C20,81.1,23.8,74.5,30,70.9z" />
	<path class="text" d="M94.4,87.5c1.4,0,2.4,0.4,3.3,1.3c0.8,0.8,1.4,2,1.4,3.3v9.4c0,1.3-0.4,2.4-1.4,3.3c-0.8,0.8-2,1.3-3.3,1.3 H80.8c-1.3,0-2.3-0.4-3.1-1.3c-0.8-0.8-1.4-2-1.4-3.3v-9.4c0-1.3,0.4-2.4,1.4-3.3c0.8-0.8,2-1.3,3.1-1.3H94.4z M154,87.5 c1.3,0,2.3,0.4,3.3,1.3c1,0.8,1.4,1.8,1.4,3.1v9.6c0,1.3-0.4,2.3-1.4,3.1c-1,0.8-2,1.3-3.3,1.3h-26.6v68.2c0,1.2-0.4,2.1-1.4,3 s-2,1.3-3.3,1.3h-10.5c-1.4,0-2.4-0.4-3.4-1.3c-1-0.8-1.4-1.8-1.4-3V91.9c0-1.3,0.4-2.3,1.4-3.1c1-0.8,2-1.3,3.4-1.3H154z" />
	<style>
		.hexagon { fill: #1d1e2a; }
		.text { fill: #f6f6f6; }
	</style>
</svg>