<svg xmlns="http://www.w3.org/2000/svg" viewBox="0 0 235 266">
	<path class="hexagon" d="M110.9,241.9l-84.3-48.7c-4.1-2.4-6.6-6.8-6.7-11.5V84.3c0-4.8,2.5-9.2,6.7-11.6l84.3-48.6 c4.1-2.4,9.2-2.4,13.3,0l84.2,48.7c4.1,2.4,6.7,6.8,6.7,11.6v97.3c0,4.8-2.5,9.2-6.7,11.6l-84.2,48.6 C120.2,244.2,115.1,244.2,110.9,241.9z" />
	<path class="text" d="M94.4,87.5c1.4,0,2.4,0.4,3.3,1.3c0.8,0.8,1.4,2,1.4,3.3v9.4c0,1.3-0.4,2.4-1.4,3.3c-0.8,0.8-2,1.3-3.3,1.3 H80.8c-1.3,0-2.3-0.4-3.1-1.3c-0.8-0.8-1.4-2-1.4-3.3v-9.4c0-1.3,0.4-2.4,1.4-3.3c0.8-0.8,2-1.3,3.1-1.3 C80.8,87.5,94.4,87.5,94.4,87.5z M154,87.5c1.3,0,2.3,0.4,3.3,1.3c1,0.8,1.4,1.8,1.4,3.1v9.6c0,1.3-0.4,2.3-1.4,3.1 c-1,0.8-2,1.3-3.3,1.3h-26.6v68.2c0,1.2-0.4,2.1-1.4,3s-2,1.3-3.3,1.3h-10.5c-1.4,0-2.4-0.4-3.4-1.3c-1-0.8-1.4-1.8-1.4-3V91.9 c0-1.3,0.4-2.3,1.4-3.1c1-0.8,2-1.3,3.4-1.3C112.2,87.5,154,87.5,154,87.5z" />
	<style type="text/css">
		.hexagon { fill: #1d1e2a; }
		.text { fill: #f6f6f6; }
	</style>
</svg>
